<svg width="21" height="17" viewBox="0 0 21 17" fill="none" xmlns="http://www.w3.org/2000/svg">
<path fill-rule="evenodd" clip-rule="evenodd" d="M2 9L2.01177 9.00004C2.01965 8.83268 2.03148 8.66595 2.04719 8.5C2.24767 6.38259 3.08049 4.39175 4.42342 2.85726C4.44534 2.83221 4.4674 2.80729 4.48959 2.78248C6.08365 1.00089 8.24566 0 10.5 0C12.7543 0 14.9163 1.00089 16.5104 2.78249C16.5326 2.80729 16.5547 2.83221 16.5766 2.85726C17.9195 4.39175 18.7523 6.38259 18.9528 8.5C18.9685 8.66595 18.9803 8.83269 18.9882 9.00004C18.9922 9.00001 18.9961 9 19 9C20.1046 9 21 9.89543 21 11V15C21 16.1046 20.1046 17 19 17C17.8954 17 17 16.1046 17 15V11C17 10.2013 17.4682 9.51199 18.145 9.19144C18.0754 7.0359 17.2788 4.9848 15.9094 3.45424C15.8871 3.4294 15.8648 3.40473 15.8423 3.38024C14.4144 1.82311 12.4975 0.95 10.5 0.95C8.50252 0.95 6.58559 1.82311 5.15767 3.38023C5.1352 3.40473 5.11286 3.4294 5.09063 3.45424C3.72118 4.9848 2.92456 7.0359 2.85498 9.19144C3.53184 9.51199 4 10.2013 4 11V15C4 16.1046 3.10457 17 2 17C0.895431 17 0 16.1046 0 15V11C0 9.89543 0.895431 9 2 9ZM3 15V11C3 10.4477 2.55228 10 2 10C1.44772 10 1 10.4477 1 11V15C1 15.5523 1.44772 16 2 16C2.55228 16 3 15.5523 3 15ZM20 11V15C20 15.5523 19.5523 16 19 16C18.4477 16 18 15.5523 18 15V11C18 10.4477 18.4477 10 19 10C19.5523 10 20 10.4477 20 11Z" fill="#282828"/>
</svg>
