<svg width="24" height="24" viewBox="0 0 24 24" fill="none" xmlns="http://www.w3.org/2000/svg">
<path fill-rule="evenodd" clip-rule="evenodd" d="M20 12C20 16.4183 16.4183 20 12 20C7.58172 20 4 16.4183 4 12C4 7.58173 7.58172 4 12 4C16.4183 4 20 7.58173 20 12ZM16.6961 17.1911C15.5697 18.2107 14.11 18.8688 12.5 18.9824V12.995L16.6961 17.1911ZM17.1911 16.6961L12.845 12.3501H18.9914C18.9092 14.0194 18.2422 15.5349 17.1911 16.6961ZM11.8 11.3051V5.00281C10.0715 5.0513 8.49981 5.72636 7.30388 6.80893L11.8 11.3051ZM6.80891 7.30391C5.75774 8.46516 5.09078 9.98073 5.00859 11.6501H11.1551L6.80891 7.30391ZM18.9914 11.6501C18.9092 9.98074 18.2423 8.46519 17.1911 7.30394L12.845 11.6501H18.9914ZM12.5 5.01758C14.1101 5.13121 15.5698 5.78934 16.6962 6.80896L12.5 11.0051V5.01758ZM5.0086 12.3501H11.1551L6.80897 16.6962C5.75779 15.5349 5.09082 14.0194 5.0086 12.3501ZM11.8 18.9972V12.6951L7.30395 17.1911C8.49987 18.2737 10.0716 18.9487 11.8 18.9972Z" fill="#282828"/>
<path fill-rule="evenodd" clip-rule="evenodd" d="M24 12C24 18.6274 18.6274 24 12 24C5.37258 24 0 18.6274 0 12C0 5.37259 5.37258 0 12 0C18.6274 0 24 5.37259 24 12ZM23 12C23 18.0751 18.0751 23 12 23C5.92487 23 1 18.0751 1 12C1 5.92487 5.92487 1 12 1C18.0751 1 23 5.92487 23 12Z" fill="#282828"/>
</svg>
