<svg width="24" height="24" viewBox="0 0 24 24" fill="none" xmlns="http://www.w3.org/2000/svg">
<path fill-rule="evenodd" clip-rule="evenodd" d="M19.5444 10.8618C19.8395 10.0122 20 9.09794 20 8.14551C20 3.64687 16.4183 0 12 0C7.58172 0 4 3.64687 4 8.14551C4 9.09794 4.16055 10.0122 4.45559 10.8618C1.73767 13.1017 0 16.5261 0 20.3638C0 24.8698 2.39565 24.266 5.96087 23.3673C7.73473 22.9202 9.79811 24 12 24C14.2019 24 16.2653 22.9202 18.0391 23.3673C21.6043 24.266 24 24.8698 24 20.3638C24 16.5261 22.2623 13.1017 19.5444 10.8618ZM18 8.14551C18 11.5195 15.3137 14.2546 12 14.2546C8.68629 14.2546 6 11.5195 6 8.14551C6 4.77153 8.68629 2.03638 12 2.03638C15.3137 2.03638 18 4.77153 18 8.14551ZM18.615 12.7278C17.175 14.8787 14.7495 16.291 12 16.291C9.25051 16.291 6.82498 14.8787 5.38496 12.7278C3.30919 14.5935 2 17.3229 2 20.3638C2 21.4187 2.1552 21.822 2.21512 21.9394C2.30725 21.9598 2.58252 21.9965 3.21564 21.899C3.85457 21.8006 4.5292 21.6301 5.35705 21.4209C5.81209 21.3059 6.31354 21.1792 6.88068 21.0464C8.37014 20.6975 10.1198 21.899 12 21.899C13.8802 21.899 15.6299 20.6975 17.1193 21.0464C17.6865 21.1792 18.1878 21.3059 18.6428 21.4209C19.4707 21.6301 20.1454 21.8006 20.7844 21.899C21.4175 21.9965 21.6927 21.9598 21.7849 21.9394C21.8448 21.822 22 21.4187 22 20.3638C22 17.3229 20.6908 14.5935 18.615 12.7278Z" fill="#282828"/>
</svg>
