<svg width="24" height="17" viewBox="0 0 24 17" fill="none" xmlns="http://www.w3.org/2000/svg">
<path d="M16.5 1.98255C16.2239 1.98255 16 2.20641 16 2.48254C16 2.75868 16.2239 2.98254 16.5 2.98254H19.5C19.7761 2.98254 20 2.75868 20 2.48254C20 2.20641 19.7761 1.98255 19.5 1.98255H16.5Z" fill="#282828"/>
<path fill-rule="evenodd" clip-rule="evenodd" d="M1.81893 1.81719L5.5 1.48255L14.7344 0.0244762C14.9107 -0.00335586 15.0899 -0.00747574 15.2672 0.0122386L22.2209 0.784867C23.2337 0.897401 24 1.75353 24 2.77263V7.09058C24 8.15204 23.1708 9.02861 22.1109 9.08749L18.469 9.28983C18.4738 9.31035 18.478 9.33115 18.4816 9.35217C18.485 9.37241 18.4878 9.39285 18.49 9.4135L19.0758 14.8993C19.1345 15.4485 18.7368 15.9412 18.1877 15.9998L15.6891 16.2667C15.1593 16.3232 14.6781 15.9544 14.5952 15.4281L13.684 9.64922C13.6675 9.54486 13.6677 9.44225 13.6825 9.34386L5.5 8.48254L1.81893 8.1479C0.788773 8.05425 0 7.19052 0 6.15611V3.80898C0 2.77457 0.788769 1.91084 1.81893 1.81719ZM5.59761 7.48729L5 7.43297V2.53212L5.62338 2.47545L14.8904 1.01224C14.9785 0.998323 15.0681 0.996263 15.1568 1.00612L22.1104 1.77875C22.6169 1.83502 23 2.26308 23 2.77263V7.09058C23 7.62131 22.5854 8.05959 22.0555 8.08904L15.105 8.47517C15.0516 8.47814 14.998 8.47681 14.9448 8.47121L5.59761 7.48729ZM4 2.62303L1.90947 2.81308C1.39439 2.85991 1 3.29176 1 3.80898V6.15611C1 6.67331 1.39439 7.10518 1.90947 7.15201L4 7.34206V2.62303ZM17.4957 9.51968L14.6718 9.49347L15.5829 15.2723L18.0815 15.0055L17.4957 9.51968Z" fill="#282828"/>
</svg>
