<svg width="24" height="13" viewBox="0 0 24 13" fill="none" xmlns="http://www.w3.org/2000/svg">
<path d="M8 6V7H6V9H5V7H3V6H5V4H6V6H8Z" fill="#282828"/>
<path d="M20 6.5C20 7.32843 19.3284 8 18.5 8C17.6716 8 17 7.32843 17 6.5C17 5.67157 17.6716 5 18.5 5C19.3284 5 20 5.67157 20 6.5Z" fill="#282828"/>
<path d="M14.5 8C15.3284 8 16 7.32843 16 6.5C16 5.67157 15.3284 5 14.5 5C13.6716 5 13 5.67157 13 6.5C13 7.32843 13.6716 8 14.5 8Z" fill="#282828"/>
<path fill-rule="evenodd" clip-rule="evenodd" d="M2 0C0.895431 0 0 0.89543 0 2V11C0 12.1046 0.89543 13 2 13H22C23.1046 13 24 12.1046 24 11V2C24 0.895431 23.1046 0 22 0H2ZM22 1H2C1.44772 1 1 1.44772 1 2V11C1 11.5523 1.44772 12 2 12H22C22.5523 12 23 11.5523 23 11V2C23 1.44772 22.5523 1 22 1Z" fill="#282828"/>
</svg>
