<svg width="24" height="24" viewBox="0 0 24 24" fill="none" xmlns="http://www.w3.org/2000/svg">
<path fill-rule="evenodd" clip-rule="evenodd" d="M21.3103 2.20674L20.5 0L19.6897 2.20674L17.5 3.02331L19.6897 3.83987L20.5 6.04661L21.3103 3.83987L23.5 3.02331L21.3103 2.20674ZM22.3474 3.02331L20.999 2.52047L20.5 1.16157L20.001 2.52047L18.6526 3.02331L20.001 3.52614L20.5 4.88504L20.999 3.52614L22.3474 3.02331Z" fill="#282828"/>
<path d="M8.41587 17.6225C7.90273 17.4933 7.49293 17.025 7.10273 16.5439C7.06907 16.5024 7.03556 16.4608 7.00214 16.4193L6.95611 16.3622C6.49827 15.7948 6.16933 15.07 6.00025 14.2726C5.96332 14.0984 5.93402 13.9208 5.91266 13.7406C5.91136 13.7296 5.90958 13.7188 5.90735 13.7082C5.87354 13.547 5.73525 13.4253 5.56937 13.4253C5.37516 13.4253 5.22075 13.5909 5.243 13.7854L5.24713 13.8207C5.27001 14.0126 5.30023 14.2034 5.33753 14.392C5.51945 15.3117 5.86978 16.1776 6.35818 16.8522C6.40423 16.9158 6.45152 16.9777 6.5 17.0378C6.99815 17.6552 7.59893 18.0875 8.24436 18.3043C8.38496 18.3515 8.52768 18.3885 8.67192 18.415C8.72984 18.4256 8.788 18.4345 8.84637 18.4417C9.04649 18.4664 9.21054 18.2994 9.21054 18.0962C9.21054 17.9222 9.09105 17.7868 8.93465 17.7148C8.8561 17.6786 8.76823 17.6584 8.68151 17.6573C8.58983 17.6561 8.50142 17.644 8.41587 17.6225Z" fill="#282828"/>
<path fill-rule="evenodd" clip-rule="evenodd" d="M18 13.4184C18 17.5927 14.6421 20.9767 10.5 20.9767C6.35786 20.9767 3 17.5927 3 13.4184C3 9.24411 6.35786 5.86016 10.5 5.86016C14.6421 5.86016 18 9.24411 18 13.4184ZM17 13.4184C17 17.0362 14.0899 19.9689 10.5 19.9689C6.91015 19.9689 4 17.0362 4 13.4184C4 9.80068 6.91015 6.86793 10.5 6.86793C14.0899 6.86793 17 9.80068 17 13.4184Z" fill="#282828"/>
<path fill-rule="evenodd" clip-rule="evenodd" d="M16.4313 4.68561C17.468 5.40209 18.3707 6.30119 19.0937 7.33688L20.8248 6.69134L21.5 4.85239L22.1752 6.69134L24 7.37181L22.1752 8.05229L21.5 9.89123L20.8248 8.05229L19.1586 7.43096C20.3202 9.13363 21 11.196 21 13.4184C21 19.2625 16.299 24 10.5 24C4.70101 24 0 19.2625 0 13.4184C0 7.57438 4.70101 2.83685 10.5 2.83685C11.9291 2.83685 13.2916 3.12459 14.5334 3.64571L15.4598 3.30024L16 1.82908L16.5402 3.30024L18 3.84462L16.5402 4.389L16.4313 4.68561ZM20 13.4184C20 18.7059 15.7467 22.9922 10.5 22.9922C5.25329 22.9922 1 18.7059 1 13.4184C1 8.13096 5.25329 3.84462 10.5 3.84462C12.4958 3.84462 14.3479 4.46484 15.8767 5.52446L16 5.86016L16.0722 5.66359C18.4522 7.40341 20 10.2288 20 13.4184ZM16.0882 4.45831L16.2289 4.07527L16.8474 3.84462L16.2289 3.61397L16 2.99065L15.7711 3.61397L15.1526 3.84462L15.7711 4.07527L15.8601 4.31756C15.9368 4.36353 16.0128 4.41045 16.0882 4.45831ZM22.8474 7.37181L21.8639 7.73855L21.5 8.72966L21.1361 7.73855L20.1526 7.37181L21.1361 7.00507L21.5 6.01396L21.8639 7.00507L22.8474 7.37181Z" fill="#282828"/>
</svg>
