<svg width="16" height="24" viewBox="0 0 16 24" fill="none" xmlns="http://www.w3.org/2000/svg">
<path d="M2 3.5C2 3.22386 2.22386 3 2.5 3C2.77614 3 3 3.22386 3 3.5V4.5C3 4.77614 2.77614 5 2.5 5C2.22386 5 2 4.77614 2 4.5V3.5Z" fill="#282828"/>
<path d="M2.5 10C2.22386 10 2 10.2239 2 10.5V14.5C2 14.7761 2.22386 15 2.5 15C2.77614 15 3 14.7761 3 14.5V10.5C3 10.2239 2.77614 10 2.5 10Z" fill="#282828"/>
<path fill-rule="evenodd" clip-rule="evenodd" d="M0 2C0 0.89543 0.895431 0 2 0H14C15.1046 0 16 0.895431 16 2V22C16 23.1046 15.1046 24 14 24H2C0.895431 24 0 23.1046 0 22V2ZM2 1H14C14.5523 1 15 1.44772 15 2V7H1V2C1 1.44772 1.44771 1 2 1ZM1 8V22C1 22.5523 1.44772 23 2 23H14C14.5523 23 15 22.5523 15 22V8H1Z" fill="#282828"/>
</svg>
