<svg width="49" height="43" viewBox="0 0 49 43" fill="none" xmlns="http://www.w3.org/2000/svg">
<g clip-path="url(#clip0_14_65)">
<path d="M36.7388 16.7766C36.3831 18.0787 37.1709 19.4172 38.4984 19.7661L43.9175 21.1904C44.9071 21.4505 45.9242 20.8745 46.1894 19.9038L48.6485 10.9014C49.942 6.16635 47.0773 1.29923 42.25 0.0304637C41.7673 -0.0964104 41.2711 0.184594 41.1418 0.658108L40.9884 1.21938C40.8706 1.65063 40.4749 1.9502 40.023 1.9502H8.9354C8.4835 1.9502 8.08775 1.65063 7.96995 1.21938L7.81735 0.660688C7.688 0.187173 7.1918 -0.0938309 6.7091 0.0330429C1.88183 1.30181 -0.98288 6.16892 0.310577 10.904L2.7697 19.9063C3.03486 20.877 4.05203 21.4531 5.0416 21.193L10.4607 19.7687C11.7882 19.4197 12.5761 18.0813 12.2204 16.7791L11.1778 12.9627C11.0062 12.3344 11.4849 11.7165 12.1433 11.7165H18.4591C19.0114 11.7165 19.4591 12.1591 19.4591 12.705V40.5287C19.4591 41.8936 20.5784 43 21.9591 43H26.9591C28.3399 43 29.4591 41.8936 29.4591 40.5287V12.705C29.4591 12.1591 29.9069 11.7165 30.4591 11.7165H36.8152C37.4735 11.7165 37.9522 12.3344 37.7806 12.9627L36.7388 16.7766Z" fill="url(#paint0_linear_14_65)"/>
</g>
<defs>
<linearGradient id="paint0_linear_14_65" x1="24.4796" y1="1.42859e-08" x2="24.4796" y2="43" gradientUnits="userSpaceOnUse">
<stop stop-color="#84BCFF"/>
<stop offset="1" stop-color="#2EA7FF"/>
</linearGradient>
<clipPath id="clip0_14_65">
<rect width="49" height="43" fill="white"/>
</clipPath>
</defs>
</svg>
