<svg width="26" height="23" viewBox="0 0 26 23" fill="none" xmlns="http://www.w3.org/2000/svg">
<path fill-rule="evenodd" clip-rule="evenodd" d="M17.0908 18.0538C15.2779 19.6426 12.9029 20.6057 10.3029 20.6057C4.61275 20.6057 0 15.993 0 10.3029C0 4.61275 4.61275 0 10.3029 0C15.993 0 20.6057 4.61275 20.6057 10.3029C20.6057 12.0736 20.159 13.7401 19.3721 15.1956L25.3354 20.1995L22.9855 23L17.0908 18.0538ZM18.2793 10.3029C18.2793 14.7081 14.7081 18.2793 10.3029 18.2793C5.89762 18.2793 2.32646 14.7081 2.32646 10.3029C2.32646 5.89762 5.89762 2.32646 10.3029 2.32646C14.7081 2.32646 18.2793 5.89762 18.2793 10.3029Z" fill="white"/>
</svg>
