<svg width="18" height="24" viewBox="0 0 18 24" fill="none" xmlns="http://www.w3.org/2000/svg">
<path d="M10 3H16V4H10V3Z" fill="#282828"/>
<path fill-rule="evenodd" clip-rule="evenodd" d="M14 14C14 16.7614 11.7614 19 9 19C6.23858 19 4 16.7614 4 14C4 11.2386 6.23858 9 9 9C11.7614 9 14 11.2386 14 14ZM13 14C13 16.2091 11.2091 18 9 18C6.79086 18 5 16.2091 5 14C5 11.7909 6.79086 10 9 10C11.2091 10 13 11.7909 13 14Z" fill="#282828"/>
<path fill-rule="evenodd" clip-rule="evenodd" d="M0 2C0 0.89543 0.895431 0 2 0H16C17.1046 0 18 0.895431 18 2V22C18 23.1046 17.1046 24 16 24H2C0.89543 24 0 23.1046 0 22V2ZM2 1H16C16.5523 1 17 1.44772 17 2V5H1V2C1 1.44772 1.44771 1 2 1ZM1 6V22C1 22.5523 1.44772 23 2 23H16C16.5523 23 17 22.5523 17 22V6H1Z" fill="#282828"/>
</svg>
