<svg width="24" height="23" viewBox="0 0 24 23" fill="none" xmlns="http://www.w3.org/2000/svg">
<path fill-rule="evenodd" clip-rule="evenodd" d="M13.3023 5.70996C14.3144 5.2279 15.0138 4.19563 15.0138 3C15.0138 1.34315 13.6706 0 12.0138 0C10.3569 0 9.01379 1.34315 9.01379 3C9.01379 4.19563 9.71323 5.2279 10.7253 5.70996H10C8.89543 5.70996 8 6.60539 8 7.70996V8.70996C8 9.07425 8.09739 9.41579 8.26756 9.70996H8C6.89543 9.70996 6 10.6054 6 11.71V12.71C6 13.0742 6.09739 13.4158 6.26756 13.71H6C4.89543 13.71 4 14.6054 4 15.71V16.71C4 17.2016 4.17737 17.6518 4.47161 18H2C0.895431 18 0 18.8954 0 20V21C0 22.1046 0.89543 23 2 23H22C23.1046 23 24 22.1046 24 21V20C24 18.8954 23.1046 18 22 18H19.5284C19.8226 17.6518 20 17.2016 20 16.71V15.71C20 14.6054 19.1046 13.71 18 13.71H17.7324C17.9026 13.4158 18 13.0742 18 12.71V11.71C18 10.6054 17.1046 9.70996 16 9.70996H15.7324C15.9026 9.41579 16 9.07425 16 8.70996V7.70996C16 6.60539 15.1046 5.70996 14 5.70996H13.3023ZM14.0138 3C14.0138 4.10457 13.1184 5 12.0138 5C10.9092 5 10.0138 4.10457 10.0138 3C10.0138 1.89543 10.9092 1 12.0138 1C13.1184 1 14.0138 1.89543 14.0138 3ZM14 6.70996H10C9.44771 6.70996 9 7.15768 9 7.70996V8.70996C9 9.26225 9.44772 9.70996 10 9.70996H14C14.5523 9.70996 15 9.26225 15 8.70996V7.70996C15 7.15768 14.5523 6.70996 14 6.70996ZM16 10.71C16.5523 10.71 17 11.1577 17 11.71V12.71C17 13.2622 16.5523 13.71 16 13.71H8C7.44772 13.71 7 13.2622 7 12.71V11.71C7 11.1577 7.44772 10.71 8 10.71H16ZM6 14.71C5.44772 14.71 5 15.1577 5 15.71V16.71C5 17.2622 5.44772 17.71 6 17.71H18C18.5523 17.71 19 17.2622 19 16.71V15.71C19 15.1577 18.5523 14.71 18 14.71H6ZM22 19H2C1.44772 19 1 19.4477 1 20V21C1 21.5523 1.44772 22 2 22H22C22.5523 22 23 21.5523 23 21V20C23 19.4477 22.5523 19 22 19Z" fill="#282828"/>
</svg>
